<?xml version="1.0" encoding="UTF-8"?>
<svg width="27px" height="22px" viewBox="0 0 27 22" version="1.1" xmlns="http://www.w3.org/2000/svg" xmlns:xlink="http://www.w3.org/1999/xlink">
    <!-- Generator: Sketch 42 (36781) - http://www.bohemiancoding.com/sketch -->
    <title>copy-icon</title>
    <desc>Created with Sketch.</desc>
    <defs></defs>
    <g id="Page-1" stroke="none" stroke-width="1" fill="none" fill-rule="evenodd">
        <g id="Group-8" transform="translate(1.000000, 1.000000)" stroke="#99BCF8" stroke-width="1.07999991">
            <path d="M2.39130435,6.66666667 L18.4782609,6.66666667 L18.4782609,6.66666667 L18.4782609,17.5555556 C18.4782609,18.8888889 17.3913043,20 16.0869565,20 L0,20 L0,20 L0,9.11111111 C0,7.77777778 1.08695652,6.66666667 2.39130435,6.66666667 Z" id="Shape"></path>
            <path d="M3.26086957,6.66666667 L3.26086957,5.55555556 C3.26086957,4.33333333 4.23913043,3.33333333 5.43478261,3.33333333 L21.7391304,3.33333333 L21.7391304,14.4444444 C21.7391304,15.6666667 20.7608696,16.6666667 19.5652174,16.6666667 L18.4782609,16.6666667" id="Shape"></path>
            <path d="M6.52173913,3.33333333 L6.52173913,2.22222222 C6.52173913,1 7.5,0 8.69565217,0 L25,0 L25,11.1111111 C25,12.3333333 24.0217391,13.3333333 22.826087,13.3333333 L21.7391304,13.3333333" id="Shape"></path>
        </g>
    </g>
</svg>